<svg xmlns="http://www.w3.org/2000/svg" xmlns:xlink="http://www.w3.org/1999/xlink" version="1.1" x="0px" y="0px" viewBox="0 0 500 625" enable-background="new 0 0 500 500" xml:space="preserve"><g><g><g><path d="M287.6,228.3c-0.2,24.4-15.5,47.6-38.9,55.9c-24,8.5-50.4,1.4-66.8-18.1c-16.1-19.1-17.7-47.4-4.9-68.6     c12.6-20.9,37.9-32.6,62-27.8C267.1,175.3,287.3,199.7,287.6,228.3c0.1,12.9,20.1,12.9,20,0c-0.3-33.6-21.4-63.4-52.9-75     c-30.7-11.3-67.1-1.2-87.7,24c-21.2,25.9-24.6,63-7.2,91.8c17.3,28.8,51.1,43.3,83.9,37.1c37-7,63.5-40.8,63.9-78     C307.7,215.4,287.7,215.4,287.6,228.3z"/></g></g><g><g><path d="M270.8,284.7c18.9,18.9,37.9,37.9,56.8,56.8c2.7,2.7,5.4,5.4,8.1,8.1c9.1,9.1,23.3-5,14.1-14.1     c-18.9-18.9-37.9-37.9-56.8-56.8c-2.7-2.7-5.4-5.4-8.1-8.1C275.9,261.5,261.7,275.6,270.8,284.7L270.8,284.7z"/></g></g></g><g><g><path d="M439.4,250c-0.1,39.4-12.3,77.7-35.1,110c-21.7,30.7-53.3,54.9-88.6,67.8c-37.6,13.7-78.8,15.4-117.3,4.5    c-37-10.4-70-32.3-94.6-61.9c-50.8-61-56.8-150.5-15.9-218.3c40.8-67.5,121.9-103.6,199.4-87.9c77.3,15.7,137.6,78.9,150,156.6    C438.8,230.5,439.4,240.3,439.4,250c0,12.9,20,12.9,20,0c-0.1-43.1-13.4-86-38.6-121.1C395.9,94.1,361.2,67.6,321,53    c-81.8-29.8-177-3.7-232.2,63.5c-27.6,33.6-44.3,74.7-47.6,118.1c-3.3,42.8,7.1,86.6,29.4,123.3c21.7,35.9,54.3,65.3,92.5,82.6    c40.5,18.3,85.8,23.4,129.4,14.6c83.8-17,151.3-87.3,164.2-172c1.7-11,2.6-22,2.7-33.1C459.5,237.1,439.5,237.1,439.4,250z"/></g></g><text x="0" y="515" fill="#000000" font-size="5px" font-weight="bold" font-family="'Helvetica Neue', Helvetica, Arial-Unicode, Arial, Sans-serif">Created by Neha Tyagi</text><text x="0" y="520" fill="#000000" font-size="5px" font-weight="bold" font-family="'Helvetica Neue', Helvetica, Arial-Unicode, Arial, Sans-serif">from the Noun Project</text></svg>